<?xml version="1.0" encoding="UTF-8"?> <svg xmlns="http://www.w3.org/2000/svg" width="1221" height="729" viewBox="0 0 1221 729" fill="none"><path d="M644.601 485.762C644.601 568.101 566.8 630.038 383.993 630.038C214.789 630.038 136.981 556.01 119.605 478.209L195.144 453.28C207.988 509.18 261.619 556.768 382.483 556.768C503.347 556.768 562.262 517.491 562.262 457.059C562.262 396.627 510.894 358.109 388.525 358.109H291.838V350.556H388.525C506.362 350.556 553.956 312.79 553.956 255.379C553.956 197.968 500.325 159.444 382.483 159.444C264.64 159.444 218.562 206.28 207.235 257.642L131.697 231.955C149.072 159.437 222.348 86.168 383.999 86.168C560.005 86.168 632.522 147.352 632.522 228.181C632.522 297.677 580.402 343.755 449.716 354.329C587.949 364.904 644.601 414.761 644.601 485.768V485.762Z" stroke="url(#paint0_linear_4024_138)"></path><path d="M648.041 488.917C648.041 572.958 568.63 636.177 382.05 636.177C209.349 636.177 129.932 560.62 112.199 481.209L189.298 455.763C202.406 512.816 257.147 561.391 380.502 561.391C503.857 561.391 564 521.3 564 459.623C564 397.945 511.571 358.625 386.668 358.625H287.983V350.912H386.668C506.94 350.912 555.515 312.362 555.515 253.768C555.515 195.173 500.774 155.853 380.502 155.853C260.23 155.853 213.197 203.657 201.629 256.08L124.531 229.862C142.276 155.853 217.063 81.0669 382.05 81.0669C561.687 81.0669 635.709 143.515 635.709 226.015C635.709 296.948 582.51 343.975 449.129 354.771C590.223 365.568 648.047 416.449 648.047 488.923L648.041 488.917Z" stroke="url(#paint1_linear_4024_138)"></path><path d="M651.477 492.069C651.477 577.812 570.457 642.307 380.103 642.307C203.9 642.307 122.886 565.221 104.789 484.201L183.447 458.243C196.821 516.455 252.666 566.01 378.524 566.01C504.383 566.01 565.733 525.106 565.733 462.176C565.733 399.247 512.244 359.132 384.814 359.132H284.131V351.264H384.814C507.521 351.264 557.083 311.938 557.083 252.153C557.083 192.369 501.232 152.253 378.524 152.253C255.817 152.253 207.834 201.026 196.032 254.509L117.374 227.761C135.471 152.26 211.767 75.9565 380.103 75.9565C563.378 75.9565 638.892 139.669 638.892 223.84C638.892 296.209 584.613 344.186 448.532 355.198C592.481 366.21 651.477 418.127 651.477 492.069Z" stroke="url(#paint2_linear_4024_138)"></path><path d="M654.907 495.223C654.907 582.668 572.277 648.446 378.144 648.446C198.445 648.446 115.822 569.831 97.3672 487.208L177.592 460.731C191.231 520.097 248.185 570.632 376.541 570.632C504.896 570.632 567.468 528.92 567.468 464.739C567.468 400.558 512.918 359.654 382.96 359.654H280.279V351.632H382.96C508.103 351.632 558.645 311.523 558.645 250.554C558.645 189.586 501.69 148.675 376.541 148.675C251.391 148.675 202.459 198.415 190.429 252.965L110.211 225.681C128.659 148.669 206.473 70.855 378.15 70.855C565.063 70.855 642.076 135.831 642.076 221.673C642.076 295.473 586.724 344.411 447.936 355.64C594.74 366.874 654.907 419.814 654.907 495.223Z" stroke="url(#paint3_linear_4024_138)"></path><path d="M658.342 498.379C658.342 587.519 574.11 654.58 376.197 654.58C193.002 654.58 108.769 574.435 89.957 490.203L171.742 463.215C185.646 523.733 243.71 575.255 374.563 575.255C505.416 575.255 569.202 532.729 569.202 467.303C569.202 401.876 513.592 360.17 381.105 360.17H276.426V351.988H381.105C508.684 351.988 560.206 311.096 560.206 248.943C560.206 186.791 502.142 145.079 374.563 145.079C246.984 145.079 197.096 195.781 184.826 251.397L103.047 223.589C121.859 145.079 201.184 65.7544 376.197 65.7544C566.748 65.7544 645.258 131.995 645.258 219.507C645.258 294.744 588.828 344.632 447.345 356.082C597.004 367.532 658.342 421.509 658.342 498.385V498.379Z" stroke="url(#paint4_linear_4024_138)"></path><path d="M661.78 501.55C661.78 592.393 575.939 660.735 374.252 660.735C187.554 660.729 101.713 579.056 82.543 493.214L165.887 465.708C180.057 527.385 239.231 579.888 372.581 579.888C505.931 579.888 570.938 536.554 570.938 469.876C570.938 403.198 514.267 360.696 379.246 360.696H272.57V352.36H379.246C509.261 352.36 561.769 310.691 561.769 247.349C561.769 184.006 502.595 141.505 372.581 141.505C242.567 141.505 191.723 193.181 179.224 249.852L95.8798 221.513C115.05 141.511 195.891 60.6636 374.246 60.6636C568.435 60.6636 648.443 128.168 648.443 217.352C648.443 294.025 590.934 344.862 446.751 356.534C599.27 368.206 661.774 423.213 661.774 501.55H661.78Z" stroke="url(#paint5_linear_4024_138)"></path><path d="M665.212 504.695C665.212 597.239 577.761 666.858 372.295 666.858C182.107 666.858 94.6563 583.655 75.1289 496.204L160.033 468.18C174.468 531.011 234.746 584.5 370.593 584.5C506.44 584.5 572.662 540.352 572.662 472.429C572.662 404.505 514.931 361.208 377.382 361.208H268.707V352.717H377.382C509.831 352.717 563.321 310.265 563.321 245.739C563.321 181.213 503.036 137.916 370.587 137.916C238.137 137.916 186.356 190.548 173.617 248.286L88.7124 219.417C108.246 137.91 190.598 55.5518 372.295 55.5518C570.122 55.5518 651.629 124.32 651.629 215.169C651.629 293.278 593.046 345.072 446.162 356.96C601.537 368.848 665.212 424.883 665.212 504.689V504.695Z" stroke="url(#paint6_linear_4024_138)"></path><path d="M668.648 507.855C668.648 602.101 579.587 673.002 370.348 673.002C176.664 673.002 87.61 588.271 67.7188 499.21L154.183 470.674C168.883 534.658 230.27 589.134 368.615 589.134C506.959 589.134 574.402 544.172 574.402 475.003C574.402 405.834 515.604 361.735 375.533 361.735H264.861V353.084H375.533C510.418 353.084 564.894 309.855 564.894 244.139C564.894 178.423 503.506 134.331 368.621 134.331C233.736 134.331 180.986 187.937 168.02 246.735L81.555 217.336C101.44 134.331 185.309 50.4619 370.348 50.4619C571.806 50.4619 654.818 120.494 654.818 213.014C654.818 292.56 595.156 345.303 445.572 357.407C603.801 369.51 668.648 426.582 668.648 507.855Z" stroke="url(#paint7_linear_4024_138)"></path><path d="M672.079 511.005C672.079 606.952 581.416 679.131 368.396 679.131C171.217 679.131 80.5535 592.87 60.3047 502.2L148.329 473.146C163.294 538.289 225.791 593.739 366.633 593.739C507.474 593.739 576.132 547.969 576.132 477.549C576.132 407.128 516.273 362.24 373.674 362.24H260.999V353.435H373.674C510.995 353.435 566.451 309.423 566.451 242.523C566.451 175.623 503.954 130.735 366.633 130.735C229.312 130.735 175.613 185.316 162.412 245.168L74.3876 215.239C94.6303 130.735 180.016 45.3496 368.39 45.3496C573.487 45.3496 657.997 116.652 657.997 210.836C657.997 291.819 597.256 345.512 444.971 357.838C606.055 370.163 672.073 428.258 672.073 510.999L672.079 511.005Z" stroke="url(#paint8_linear_4024_138)"></path><path d="M675.521 514.161C675.521 611.81 583.249 685.271 366.449 685.271C165.774 685.271 73.501 597.481 52.8945 505.208L142.485 475.642C157.715 541.938 221.322 598.375 364.661 598.375C508 598.375 577.878 551.791 577.878 480.119C577.878 408.446 516.959 362.763 371.826 362.763H257.152V353.804H371.826C511.582 353.804 568.019 309.015 568.019 240.925C568.019 172.835 504.411 127.152 364.661 127.152C224.911 127.152 170.256 182.694 156.815 243.613L67.2241 213.154C87.8367 127.152 174.733 40.2495 366.449 40.2495C575.184 40.2495 661.192 112.816 661.192 208.671C661.192 291.091 599.379 345.733 444.392 358.281C608.338 370.822 675.528 429.953 675.528 514.161H675.521Z" stroke="url(#paint9_linear_4024_138)"></path><path d="M678.949 517.326C678.949 616.677 585.067 691.414 364.494 691.414C160.323 691.414 66.4406 602.094 45.4766 508.212L136.627 478.129C152.122 545.578 216.839 603.001 362.675 603.001C508.511 603.001 579.604 555.604 579.604 482.686C579.604 409.768 517.625 363.283 369.963 363.283H253.292V354.164H369.963C512.149 354.164 569.578 308.591 569.578 239.317C569.578 170.044 504.861 123.565 362.675 123.565C220.49 123.565 164.879 180.082 151.21 242.061L60.0589 211.071C81.023 123.571 169.436 35.1582 364.494 35.1582C576.867 35.1582 664.367 108.989 664.367 206.515C664.367 290.371 601.475 345.969 443.788 358.732C610.588 371.496 678.949 431.65 678.949 517.326Z" stroke="url(#paint10_linear_4024_138)"></path><path d="M682.387 520.472C682.387 621.525 586.896 697.544 362.543 697.544C154.876 697.544 59.3842 606.689 38.0625 511.204L130.773 480.609C146.533 549.217 212.354 607.62 360.693 607.62C509.033 607.62 581.34 559.415 581.34 485.246C581.34 411.076 518.3 363.802 368.111 363.802H249.442V354.529H368.111C512.732 354.529 571.142 308.173 571.142 237.715C571.142 167.258 505.321 119.978 360.693 119.978C216.066 119.978 159.512 177.45 145.608 240.49L52.8977 208.97C74.2255 119.971 164.149 30.0479 362.543 30.0479C578.553 30.0479 667.552 105.142 667.552 204.339C667.552 289.632 603.581 346.18 443.193 359.159C612.848 372.138 682.381 433.329 682.381 520.472H682.387Z" stroke="url(#paint11_linear_4024_138)"></path><path d="M685.823 523.633C685.823 626.387 588.728 703.683 360.596 703.683C149.432 703.683 52.3378 611.3 30.6523 514.205L124.923 483.092C140.948 552.853 207.879 612.243 358.709 612.243C509.54 612.243 583.068 563.224 583.068 487.809C583.068 412.394 518.967 364.318 366.25 364.318H245.583V354.89H366.25C513.307 354.89 572.703 307.758 572.703 236.11C572.703 164.463 505.772 116.393 358.715 116.393C211.659 116.393 154.149 174.834 140.005 238.941L45.7341 206.89C67.4196 116.387 158.86 24.9468 360.596 24.9468C580.244 24.9468 670.741 101.305 670.741 202.173C670.741 288.897 605.697 346.4 442.609 359.601C615.118 372.802 685.823 435.016 685.823 523.627V523.633Z" stroke="url(#paint12_linear_4024_138)"></path><path d="M689.255 526.777C689.255 631.234 590.551 709.812 358.645 709.812C143.985 709.812 45.2814 615.899 23.2383 517.195L119.069 485.57C135.359 556.484 203.4 616.855 356.727 616.855C510.055 616.855 584.804 567.022 584.804 490.361C584.804 413.701 519.643 364.823 364.392 364.823H241.727V355.235H364.392C513.884 355.235 574.26 307.32 574.26 234.489C574.26 161.657 506.22 112.786 356.727 112.786C207.235 112.786 148.776 172.207 134.403 237.368L38.5729 204.781C60.6098 112.792 153.567 19.835 358.645 19.835C581.925 19.835 673.926 97.4575 673.926 199.996C673.926 288.157 607.803 346.615 442.014 360.032C617.385 373.45 689.255 436.699 689.255 526.777Z" stroke="url(#paint13_linear_4024_138)"></path><path d="M692.689 529.948C692.689 636.106 592.375 715.961 356.69 715.961C138.534 715.961 38.221 620.519 15.8203 520.205L113.211 488.063C129.766 560.136 198.917 621.487 354.742 621.487C510.566 621.487 586.53 570.846 586.53 492.934C586.53 415.021 520.302 365.355 362.529 365.355H237.867V355.613H362.529C514.457 355.613 575.814 306.921 575.814 232.899C575.814 158.877 506.663 109.217 354.735 109.217C202.807 109.217 143.405 169.606 128.798 235.828L31.4077 202.711C53.8084 109.223 148.276 14.7554 356.69 14.7554C583.608 14.7554 677.107 93.642 677.107 197.852C677.107 287.449 609.905 346.857 441.422 360.496C619.647 374.135 692.689 438.409 692.689 529.954V529.948Z" stroke="url(#paint14_linear_4024_138)"></path><path d="M696.128 533.097C696.128 640.958 594.212 722.095 354.747 722.095C133.095 722.095 31.1724 625.124 8.41406 523.207L107.365 490.547C124.185 563.773 194.439 626.11 352.767 626.11C511.096 626.11 588.274 574.656 588.274 495.492C588.274 416.328 520.986 365.866 360.685 365.866H234.025V355.97H360.685C515.048 355.97 577.391 306.494 577.391 231.289C577.391 156.083 507.137 105.622 352.774 105.622C198.41 105.622 138.04 166.978 123.199 234.267L24.2481 200.62C47.0065 105.628 142.991 9.64307 354.747 9.64307C585.302 9.64307 680.3 89.7936 680.3 195.675C680.3 286.708 612.025 347.066 440.835 360.921C621.915 374.775 696.128 440.085 696.128 533.097Z" stroke="url(#paint15_linear_4024_138)"></path><path d="M699.56 536.253C699.56 645.815 596.034 728.228 352.796 728.228C127.648 728.228 24.116 629.728 1 526.203L101.51 493.03C118.596 567.409 189.96 630.733 350.786 630.733C511.611 630.733 590.004 578.471 590.004 498.055C590.004 417.64 521.655 366.389 358.826 366.389H230.168V356.338H358.826C515.625 356.338 578.949 306.086 578.949 229.69C578.949 153.295 507.585 102.044 350.786 102.044C193.987 102.044 132.673 164.357 117.597 232.706L17.0807 198.528C40.2028 102.038 137.698 4.54248 352.796 4.54248C586.989 4.54248 683.485 85.9571 683.485 193.509C683.485 285.979 614.131 347.293 440.241 361.363C624.176 375.434 699.56 441.773 699.56 536.253Z" stroke="url(#paint16_linear_4024_138)"></path><path d="M1110.2 364.234C1110.2 186.651 1009.3 98.8688 847.869 98.8688C686.435 98.8688 585.541 186.651 585.541 364.234C585.541 541.816 686.435 629.588 847.869 629.588C1009.3 629.588 1110.2 541.805 1110.2 364.234ZM1220.17 364.234C1220.17 603.353 1073.87 727.457 847.858 727.457C621.851 727.457 475.547 603.353 475.547 364.234C475.547 125.115 622.86 1 847.858 1C1072.86 1 1220.17 126.112 1220.17 364.234Z" stroke="url(#paint17_linear_4024_138)"></path><path d="M1094.54 364.998C1094.54 192.878 996.746 107.799 840.28 107.799C683.815 107.799 586.021 192.878 586.021 364.998C586.021 537.119 683.815 622.187 840.28 622.187C996.746 622.187 1094.54 537.108 1094.54 364.998ZM1201.14 364.998C1201.14 596.768 1059.33 717.051 840.28 717.051C621.226 717.051 479.418 596.768 479.418 364.998C479.418 133.229 622.192 12.9453 840.28 12.9453C1058.37 12.9453 1201.14 134.206 1201.14 364.998Z" stroke="url(#paint18_linear_4024_138)"></path><path d="M1078.89 365.797C1078.89 199.137 984.201 116.763 832.703 116.763C681.206 116.763 586.513 199.137 586.513 365.797C586.513 532.456 681.206 614.83 832.703 614.83C984.201 614.83 1078.89 532.456 1078.89 365.797ZM1182.11 365.797C1182.11 590.205 1044.8 706.68 832.703 706.68C620.602 706.68 483.301 590.216 483.301 365.797C483.301 141.378 621.547 24.9136 832.703 24.9136C1043.86 24.9136 1182.11 142.333 1182.11 365.797Z" stroke="url(#paint19_linear_4024_138)"></path><path d="M1063.24 366.558C1063.24 205.36 971.644 125.69 825.114 125.69C678.584 125.69 586.993 205.371 586.993 366.558C586.993 527.745 678.574 607.426 825.114 607.426C971.654 607.426 1063.24 527.745 1063.24 366.558ZM1163.07 366.558C1163.07 583.616 1030.26 696.26 825.114 696.26C619.966 696.26 487.16 583.605 487.16 366.558C487.16 149.51 620.878 36.8447 825.114 36.8447C1029.35 36.8447 1163.07 150.412 1163.07 366.558Z" stroke="url(#paint20_linear_4024_138)"></path><path d="M1047.6 367.333C1047.6 211.597 959.115 134.62 817.543 134.62C675.97 134.62 587.49 211.597 587.49 367.333C587.49 523.069 675.97 600.036 817.543 600.036C959.115 600.036 1047.6 523.058 1047.6 367.333ZM1144.04 367.333C1144.04 577.031 1015.74 685.866 817.532 685.866C619.326 685.866 491.027 577.031 491.027 367.333C491.027 157.636 620.217 48.79 817.532 48.79C1014.85 48.79 1144.04 158.505 1144.04 367.333Z" stroke="url(#paint21_linear_4024_138)"></path><path d="M1031.94 368.121C1031.94 217.847 946.564 143.573 809.959 143.573C673.355 143.573 587.976 217.847 587.976 368.121C587.976 518.396 673.355 592.669 809.959 592.669C946.564 592.669 1031.94 518.396 1031.94 368.121ZM1125 368.121C1125 570.469 1001.2 675.484 809.959 675.484C618.717 675.484 494.914 570.469 494.914 368.121C494.914 165.774 619.565 60.7588 809.959 60.7588C1000.35 60.7588 1125 166.632 1125 368.121Z" stroke="url(#paint22_linear_4024_138)"></path><path d="M1016.29 368.896C1016.29 224.094 934.014 152.514 802.377 152.514C670.741 152.514 588.463 224.094 588.463 368.896C588.463 513.699 670.741 585.279 802.377 585.279C934.014 585.279 1016.29 513.699 1016.29 368.896ZM1105.97 368.896C1105.97 563.883 986.677 665.089 802.377 665.089C618.078 665.089 498.781 563.894 498.781 368.896C498.781 173.899 618.904 72.7041 802.377 72.7041C985.851 72.7041 1105.97 174.725 1105.97 368.896Z" stroke="url(#paint23_linear_4024_138)"></path><path d="M1000.64 369.658C1000.64 230.317 921.468 161.43 794.8 161.43C668.131 161.43 588.954 230.306 588.954 369.658C588.954 509.009 668.121 577.874 794.8 577.874C921.479 577.874 1000.64 508.998 1000.64 369.658ZM1086.95 369.658C1086.95 557.294 972.146 654.669 794.8 654.669C617.453 654.669 502.652 557.294 502.652 369.658C502.652 182.021 618.247 84.6353 794.8 84.6353C971.352 84.6353 1086.95 182.805 1086.95 369.658Z" stroke="url(#paint24_linear_4024_138)"></path><path d="M984.988 370.435C984.988 236.556 908.923 170.373 787.212 170.373C665.501 170.373 589.436 236.556 589.436 370.435C589.436 504.313 665.501 570.496 787.212 570.496C908.923 570.496 984.988 504.313 984.988 370.435ZM1067.91 370.435C1067.91 550.71 957.605 644.276 787.223 644.276C616.84 644.276 506.535 550.71 506.535 370.435C506.535 190.159 617.591 96.5928 787.223 96.5928C956.854 96.5928 1067.91 190.921 1067.91 370.435Z" stroke="url(#paint25_linear_4024_138)"></path><path d="M969.344 371.208C969.344 242.791 896.38 179.312 779.637 179.312C662.894 179.312 589.93 242.791 589.93 371.208C589.93 499.626 662.894 563.105 779.637 563.105C896.38 563.105 969.344 499.626 969.344 371.208ZM1048.88 371.208C1048.88 544.134 943.077 633.88 779.637 633.88C616.197 633.88 510.398 544.134 510.398 371.208C510.398 198.283 616.926 108.537 779.637 108.537C942.348 108.537 1048.88 199.012 1048.88 371.208Z" stroke="url(#paint26_linear_4024_138)"></path><path d="M953.69 371.983C953.69 249.027 883.826 188.252 772.051 188.252C660.276 188.252 590.413 249.027 590.413 371.983C590.413 494.938 660.276 555.713 772.051 555.713C883.826 555.713 953.69 494.938 953.69 371.983ZM1029.84 371.983C1029.84 537.547 928.538 623.485 772.051 623.485C615.564 623.485 514.262 537.558 514.262 371.983C514.262 206.407 616.262 120.481 772.051 120.481C927.841 120.481 1029.84 207.105 1029.84 371.983Z" stroke="url(#paint27_linear_4024_138)"></path><path d="M938.042 372.758C938.042 255.264 871.279 197.183 764.472 197.183C657.665 197.183 590.903 255.264 590.903 372.758C590.903 490.253 657.655 548.324 764.472 548.324C871.29 548.324 938.042 490.242 938.042 372.758ZM1010.8 372.758C1010.8 530.973 914.006 613.08 764.462 613.08C614.917 613.08 518.121 530.973 518.121 372.758C518.121 214.544 615.582 132.427 764.462 132.427C913.341 132.427 1010.8 215.209 1010.8 372.758Z" stroke="url(#paint28_linear_4024_138)"></path><path d="M922.39 373.533C922.39 261.501 858.739 206.123 756.89 206.123C655.04 206.123 591.389 261.501 591.389 373.533C591.389 485.566 655.04 540.944 756.89 540.944C858.739 540.944 922.39 485.566 922.39 373.533ZM991.781 373.533C991.781 524.387 899.481 602.684 756.901 602.684C614.32 602.684 522.02 524.387 522.02 373.533C522.02 222.68 614.953 144.382 756.901 144.382C898.848 144.382 991.781 223.313 991.781 373.533Z" stroke="url(#paint29_linear_4024_138)"></path><path d="M906.746 374.32C906.746 267.75 846.196 215.076 749.315 215.076C652.433 215.076 591.883 267.75 591.883 374.32C591.883 480.891 652.433 533.565 749.315 533.565C846.196 533.565 906.746 480.891 906.746 374.32ZM972.747 374.32C972.747 517.824 884.943 592.302 749.315 592.302C613.687 592.302 525.883 517.824 525.883 374.32C525.883 230.817 614.288 156.339 749.315 156.339C884.342 156.339 972.747 231.418 972.747 374.32Z" stroke="url(#paint30_linear_4024_138)"></path><path d="M891.095 375.107C891.095 273.998 833.647 224.018 741.733 224.018C649.819 224.018 592.371 273.998 592.371 375.107C592.371 476.217 649.819 526.187 741.733 526.187C833.647 526.187 891.095 476.206 891.095 375.107ZM953.716 375.107C953.716 511.25 870.419 581.908 741.733 581.908C613.047 581.908 529.75 511.25 529.75 375.107C529.75 238.965 613.627 168.296 741.733 168.296C869.839 168.296 953.716 239.533 953.716 375.107Z" stroke="url(#paint31_linear_4024_138)"></path><path d="M875.442 375.872C875.442 280.224 821.094 232.947 734.148 232.947C647.203 232.947 592.855 280.224 592.855 375.872C592.855 471.519 647.192 518.796 734.148 518.796C821.105 518.796 875.442 471.519 875.442 375.872ZM934.672 375.872C934.672 504.664 855.87 571.502 734.148 571.502C612.427 571.502 533.625 504.664 533.625 375.872C533.625 247.079 612.963 180.241 734.148 180.241C855.334 180.241 934.672 247.626 934.672 375.872Z" stroke="url(#paint32_linear_4024_138)"></path><path d="M859.795 376.632C859.795 286.446 808.559 241.873 726.57 241.873C644.582 241.873 593.346 286.446 593.346 376.632C593.346 466.818 644.582 511.391 726.57 511.391C808.559 511.391 859.795 466.818 859.795 376.632ZM915.645 376.632C915.645 498.064 841.35 561.093 726.57 561.093C611.791 561.093 537.496 498.064 537.496 376.632C537.496 255.2 612.306 192.172 726.57 192.172C840.835 192.172 915.645 255.705 915.645 376.632Z" stroke="url(#paint33_linear_4024_138)"></path><defs><linearGradient id="paint0_linear_4024_138" x1="118.89" y1="358.103" x2="645.218" y2="358.103" gradientUnits="userSpaceOnUse"><stop offset="0.02" stop-color="#FFFF5A"></stop><stop offset="0.18" stop-color="#12BCB1"></stop></linearGradient><linearGradient id="paint1_linear_4024_138" x1="111.459" y1="358.619" x2="648.676" y2="358.619" gradientUnits="userSpaceOnUse"><stop stop-color="#FFFE59"></stop><stop offset="0.02" stop-color="#FFFE59"></stop><stop offset="0.18" stop-color="#1EBFAC"></stop><stop offset="0.97" stop-color="#11BEB2"></stop></linearGradient><linearGradient id="paint2_linear_4024_138" x1="104.024" y1="359.132" x2="652.136" y2="359.132" gradientUnits="userSpaceOnUse"><stop stop-color="#FFFD58"></stop><stop offset="0.02" stop-color="#FFFD58"></stop><stop offset="0.18" stop-color="#2AC2A7"></stop><stop offset="0.97" stop-color="#11C0B3"></stop></linearGradient><linearGradient id="paint3_linear_4024_138" x1="96.5841" y1="359.647" x2="655.585" y2="359.647" gradientUnits="userSpaceOnUse"><stop stop-color="#FFFC57"></stop><stop offset="0.02" stop-color="#FFFC58"></stop><stop offset="0.18" stop-color="#36C5A2"></stop><stop offset="0.97" stop-color="#10C2B4"></stop></linearGradient><linearGradient id="paint4_linear_4024_138" x1="89.1493" y1="360.164" x2="659.039" y2="360.164" gradientUnits="userSpaceOnUse"><stop stop-color="#FFFB57"></stop><stop offset="0.02" stop-color="#FFFB57"></stop><stop offset="0.18" stop-color="#42C89D"></stop><stop offset="0.97" stop-color="#0FC5B5"></stop></linearGradient><linearGradient id="paint5_linear_4024_138" x1="81.7106" y1="360.696" x2="662.489" y2="360.696" gradientUnits="userSpaceOnUse"><stop stop-color="#FFF956"></stop><stop offset="0.02" stop-color="#FEF956"></stop><stop offset="0.18" stop-color="#4ECA98"></stop><stop offset="0.97" stop-color="#0EC7B7"></stop></linearGradient><linearGradient id="paint6_linear_4024_138" x1="74.2718" y1="361.202" x2="665.94" y2="361.202" gradientUnits="userSpaceOnUse"><stop stop-color="#FFF855"></stop><stop offset="0.02" stop-color="#FEF855"></stop><stop offset="0.18" stop-color="#5ACD93"></stop><stop offset="0.97" stop-color="#0DC9B8"></stop></linearGradient><linearGradient id="paint7_linear_4024_138" x1="66.837" y1="361.729" x2="669.4" y2="361.729" gradientUnits="userSpaceOnUse"><stop stop-color="#FFF754"></stop><stop offset="0.02" stop-color="#FEF754"></stop><stop offset="0.18" stop-color="#66D08E"></stop><stop offset="0.97" stop-color="#0DCBB9"></stop></linearGradient><linearGradient id="paint8_linear_4024_138" x1="59.3983" y1="362.24" x2="672.85" y2="362.24" gradientUnits="userSpaceOnUse"><stop stop-color="#FFF653"></stop><stop offset="0.02" stop-color="#FEF654"></stop><stop offset="0.18" stop-color="#72D389"></stop><stop offset="0.97" stop-color="#0CCDBA"></stop></linearGradient><linearGradient id="paint9_linear_4024_138" x1="51.9696" y1="362.763" x2="676.311" y2="362.763" gradientUnits="userSpaceOnUse"><stop stop-color="#FFF552"></stop><stop offset="0.02" stop-color="#FEF553"></stop><stop offset="0.18" stop-color="#7FD684"></stop><stop offset="0.97" stop-color="#0BCFBB"></stop></linearGradient><linearGradient id="paint10_linear_4024_138" x1="44.527" y1="363.289" x2="679.757" y2="363.289" gradientUnits="userSpaceOnUse"><stop stop-color="#FFF451"></stop><stop offset="0.02" stop-color="#FEF452"></stop><stop offset="0.18" stop-color="#8BD97F"></stop><stop offset="0.97" stop-color="#0BD1BC"></stop></linearGradient><linearGradient id="paint11_linear_4024_138" x1="37.0945" y1="363.796" x2="683.213" y2="363.796" gradientUnits="userSpaceOnUse"><stop stop-color="#FFF350"></stop><stop offset="0.02" stop-color="#FEF351"></stop><stop offset="0.18" stop-color="#97DC7A"></stop><stop offset="0.97" stop-color="#0AD3BD"></stop></linearGradient><linearGradient id="paint12_linear_4024_138" x1="29.6596" y1="364.318" x2="686.668" y2="364.318" gradientUnits="userSpaceOnUse"><stop stop-color="#FFF250"></stop><stop offset="0.02" stop-color="#FEF250"></stop><stop offset="0.18" stop-color="#A3DF75"></stop><stop offset="0.97" stop-color="#09D6BF"></stop></linearGradient><linearGradient id="paint13_linear_4024_138" x1="22.2209" y1="364.823" x2="690.124" y2="364.823" gradientUnits="userSpaceOnUse"><stop stop-color="#FFF04F"></stop><stop offset="0.02" stop-color="#FDF04F"></stop><stop offset="0.18" stop-color="#AFE170"></stop><stop offset="0.97" stop-color="#08D8C0"></stop></linearGradient><linearGradient id="paint14_linear_4024_138" x1="14.7844" y1="365.361" x2="693.576" y2="365.361" gradientUnits="userSpaceOnUse"><stop stop-color="#FFEF4E"></stop><stop offset="0.02" stop-color="#FDEF4F"></stop><stop offset="0.18" stop-color="#BBE46B"></stop><stop offset="0.97" stop-color="#08DAC1"></stop></linearGradient><linearGradient id="paint15_linear_4024_138" x1="7.35353" y1="365.872" x2="697.035" y2="365.872" gradientUnits="userSpaceOnUse"><stop stop-color="#FFEE4D"></stop><stop offset="0.02" stop-color="#FDEE4E"></stop><stop offset="0.18" stop-color="#C7E766"></stop><stop offset="0.97" stop-color="#07DCC2"></stop></linearGradient><linearGradient id="paint16_linear_4024_138" x1="-0.0851991" y1="366.389" x2="700.485" y2="366.389" gradientUnits="userSpaceOnUse"><stop stop-color="#FFED4C"></stop><stop offset="0.97" stop-color="#06DEC3"></stop></linearGradient><linearGradient id="paint17_linear_4024_138" x1="473.937" y1="364.234" x2="1221.78" y2="364.234" gradientUnits="userSpaceOnUse"><stop offset="0.03" stop-color="#06DEC3"></stop><stop offset="0.15" stop-color="#0ADEC1"></stop><stop offset="0.27" stop-color="#16E0BB"></stop><stop offset="0.4" stop-color="#2BE3B2"></stop><stop offset="0.52" stop-color="#49E6A6"></stop><stop offset="0.65" stop-color="#6FEB96"></stop><stop offset="0.78" stop-color="#9EF282"></stop><stop offset="0.91" stop-color="#D4F96C"></stop><stop offset="1" stop-color="#FFFF5A"></stop></linearGradient><linearGradient id="paint18_linear_4024_138" x1="477.808" y1="364.998" x2="1202.75" y2="364.998" gradientUnits="userSpaceOnUse"><stop offset="0.03" stop-color="#06DEC3"></stop><stop offset="0.16" stop-color="#0ADEC1"></stop><stop offset="0.28" stop-color="#16E0BC"></stop><stop offset="0.4" stop-color="#2AE2B3"></stop><stop offset="0.52" stop-color="#46E6A7"></stop><stop offset="0.65" stop-color="#6BEA97"></stop><stop offset="0.77" stop-color="#98F084"></stop><stop offset="0.89" stop-color="#CBF76E"></stop><stop offset="0.99" stop-color="#FAFD5B"></stop><stop offset="1" stop-color="#FFFE59"></stop></linearGradient><linearGradient id="paint19_linear_4024_138" x1="481.681" y1="365.786" x2="1183.72" y2="365.786" gradientUnits="userSpaceOnUse"><stop offset="0.03" stop-color="#06DEC3"></stop><stop offset="0.16" stop-color="#09DEC1"></stop><stop offset="0.28" stop-color="#15DFBC"></stop><stop offset="0.41" stop-color="#28E2B4"></stop><stop offset="0.53" stop-color="#44E5A8"></stop><stop offset="0.65" stop-color="#67E999"></stop><stop offset="0.76" stop-color="#92EF86"></stop><stop offset="0.88" stop-color="#C4F571"></stop><stop offset="0.99" stop-color="#FBFC5A"></stop><stop offset="1" stop-color="#FFFD58"></stop></linearGradient><linearGradient id="paint20_linear_4024_138" x1="485.551" y1="366.558" x2="1164.68" y2="366.558" gradientUnits="userSpaceOnUse"><stop offset="0.03" stop-color="#06DEC3"></stop><stop offset="0.17" stop-color="#09DEC1"></stop><stop offset="0.29" stop-color="#14DFBC"></stop><stop offset="0.41" stop-color="#27E1B4"></stop><stop offset="0.53" stop-color="#41E5A9"></stop><stop offset="0.65" stop-color="#63E99A"></stop><stop offset="0.76" stop-color="#8DEE88"></stop><stop offset="0.87" stop-color="#BEF373"></stop><stop offset="0.98" stop-color="#F6FA5B"></stop><stop offset="0.99" stop-color="#FBFB59"></stop><stop offset="1" stop-color="#FFFC57"></stop></linearGradient><linearGradient id="paint21_linear_4024_138" x1="489.429" y1="367.333" x2="1145.65" y2="367.333" gradientUnits="userSpaceOnUse"><stop offset="0.03" stop-color="#06DEC3"></stop><stop offset="0.18" stop-color="#09DEC1"></stop><stop offset="0.3" stop-color="#14DFBC"></stop><stop offset="0.42" stop-color="#26E1B4"></stop><stop offset="0.53" stop-color="#3FE4A9"></stop><stop offset="0.65" stop-color="#60E89B"></stop><stop offset="0.76" stop-color="#88EC89"></stop><stop offset="0.86" stop-color="#B8F275"></stop><stop offset="0.97" stop-color="#EEF85D"></stop><stop offset="0.99" stop-color="#FBFA58"></stop><stop offset="1" stop-color="#FFFB57"></stop></linearGradient><linearGradient id="paint22_linear_4024_138" x1="493.294" y1="368.121" x2="1126.61" y2="368.121" gradientUnits="userSpaceOnUse"><stop offset="0.03" stop-color="#06DEC3"></stop><stop offset="0.18" stop-color="#09DEC1"></stop><stop offset="0.31" stop-color="#13DFBC"></stop><stop offset="0.43" stop-color="#25E1B5"></stop><stop offset="0.54" stop-color="#3DE4AA"></stop><stop offset="0.65" stop-color="#5DE79C"></stop><stop offset="0.75" stop-color="#84EB8B"></stop><stop offset="0.85" stop-color="#B2F077"></stop><stop offset="0.95" stop-color="#E6F660"></stop><stop offset="0.99" stop-color="#FCF957"></stop><stop offset="1" stop-color="#FFF956"></stop></linearGradient><linearGradient id="paint23_linear_4024_138" x1="497.161" y1="368.886" x2="1107.58" y2="368.886" gradientUnits="userSpaceOnUse"><stop offset="0.03" stop-color="#06DEC3"></stop><stop offset="0.19" stop-color="#09DEC1"></stop><stop offset="0.32" stop-color="#13DFBD"></stop><stop offset="0.43" stop-color="#24E1B5"></stop><stop offset="0.54" stop-color="#3BE3AB"></stop><stop offset="0.65" stop-color="#5AE69D"></stop><stop offset="0.75" stop-color="#80EA8C"></stop><stop offset="0.85" stop-color="#ACEF79"></stop><stop offset="0.94" stop-color="#DFF462"></stop><stop offset="0.99" stop-color="#FCF856"></stop><stop offset="1" stop-color="#FFF855"></stop></linearGradient><linearGradient id="paint24_linear_4024_138" x1="501.043" y1="369.658" x2="1088.56" y2="369.658" gradientUnits="userSpaceOnUse"><stop offset="0.03" stop-color="#06DEC3"></stop><stop offset="0.2" stop-color="#09DEC1"></stop><stop offset="0.33" stop-color="#12DFBD"></stop><stop offset="0.44" stop-color="#22E0B6"></stop><stop offset="0.55" stop-color="#3AE3AB"></stop><stop offset="0.65" stop-color="#57E69E"></stop><stop offset="0.75" stop-color="#7CEA8E"></stop><stop offset="0.84" stop-color="#A7EE7A"></stop><stop offset="0.93" stop-color="#D8F364"></stop><stop offset="0.99" stop-color="#FCF755"></stop><stop offset="1" stop-color="#FFF754"></stop></linearGradient><linearGradient id="paint25_linear_4024_138" x1="504.915" y1="370.435" x2="1069.52" y2="370.435" gradientUnits="userSpaceOnUse"><stop offset="0.03" stop-color="#06DEC3"></stop><stop offset="0.21" stop-color="#08DEC1"></stop><stop offset="0.34" stop-color="#12DFBD"></stop><stop offset="0.45" stop-color="#22E0B6"></stop><stop offset="0.56" stop-color="#38E2AC"></stop><stop offset="0.66" stop-color="#55E59F"></stop><stop offset="0.75" stop-color="#78E98F"></stop><stop offset="0.84" stop-color="#A2ED7C"></stop><stop offset="0.92" stop-color="#D2F167"></stop><stop offset="0.99" stop-color="#FDF654"></stop><stop offset="1" stop-color="#FFF653"></stop></linearGradient><linearGradient id="paint26_linear_4024_138" x1="508.789" y1="371.208" x2="1050.49" y2="371.208" gradientUnits="userSpaceOnUse"><stop offset="0.03" stop-color="#06DEC3"></stop><stop offset="0.22" stop-color="#08DEC1"></stop><stop offset="0.35" stop-color="#11DFBD"></stop><stop offset="0.46" stop-color="#21E0B6"></stop><stop offset="0.57" stop-color="#36E2AC"></stop><stop offset="0.66" stop-color="#52E4A0"></stop><stop offset="0.75" stop-color="#75E790"></stop><stop offset="0.84" stop-color="#9EEB7D"></stop><stop offset="0.92" stop-color="#CCEF68"></stop><stop offset="0.99" stop-color="#FDF453"></stop><stop offset="1" stop-color="#FFF552"></stop></linearGradient><linearGradient id="paint27_linear_4024_138" x1="512.663" y1="371.983" x2="1031.45" y2="371.983" gradientUnits="userSpaceOnUse"><stop offset="0.03" stop-color="#06DEC3"></stop><stop offset="0.23" stop-color="#08DEC1"></stop><stop offset="0.36" stop-color="#11DEBD"></stop><stop offset="0.48" stop-color="#20E0B6"></stop><stop offset="0.57" stop-color="#35E2AD"></stop><stop offset="0.67" stop-color="#50E4A0"></stop><stop offset="0.75" stop-color="#72E791"></stop><stop offset="0.84" stop-color="#9AEA7F"></stop><stop offset="0.91" stop-color="#C7EE6A"></stop><stop offset="0.99" stop-color="#FDF352"></stop><stop offset="1" stop-color="#FFF451"></stop></linearGradient><linearGradient id="paint28_linear_4024_138" x1="516.522" y1="372.759" x2="1012.41" y2="372.759" gradientUnits="userSpaceOnUse"><stop offset="0.03" stop-color="#06DEC3"></stop><stop offset="0.25" stop-color="#08DEC1"></stop><stop offset="0.38" stop-color="#11DEBD"></stop><stop offset="0.49" stop-color="#1FE0B7"></stop><stop offset="0.58" stop-color="#34E1AD"></stop><stop offset="0.67" stop-color="#4EE3A1"></stop><stop offset="0.76" stop-color="#6FE692"></stop><stop offset="0.84" stop-color="#96E980"></stop><stop offset="0.91" stop-color="#C3ED6B"></stop><stop offset="0.98" stop-color="#F5F154"></stop><stop offset="0.99" stop-color="#FDF251"></stop><stop offset="1" stop-color="#FFF350"></stop></linearGradient><linearGradient id="paint29_linear_4024_138" x1="520.399" y1="373.533" x2="993.391" y2="373.533" gradientUnits="userSpaceOnUse"><stop offset="0.03" stop-color="#06DEC3"></stop><stop offset="0.26" stop-color="#08DEC1"></stop><stop offset="0.39" stop-color="#10DEBE"></stop><stop offset="0.5" stop-color="#1EDFB7"></stop><stop offset="0.59" stop-color="#32E1AE"></stop><stop offset="0.68" stop-color="#4CE3A2"></stop><stop offset="0.76" stop-color="#6CE593"></stop><stop offset="0.83" stop-color="#92E881"></stop><stop offset="0.91" stop-color="#BEEC6D"></stop><stop offset="0.97" stop-color="#EFEF56"></stop><stop offset="0.99" stop-color="#FEF150"></stop><stop offset="1" stop-color="#FFF250"></stop></linearGradient><linearGradient id="paint30_linear_4024_138" x1="524.273" y1="374.31" x2="974.356" y2="374.31" gradientUnits="userSpaceOnUse"><stop offset="0.03" stop-color="#06DEC3"></stop><stop offset="0.27" stop-color="#08DEC1"></stop><stop offset="0.41" stop-color="#10DEBE"></stop><stop offset="0.51" stop-color="#1EDFB7"></stop><stop offset="0.61" stop-color="#31E1AE"></stop><stop offset="0.69" stop-color="#4AE3A2"></stop><stop offset="0.76" stop-color="#6AE594"></stop><stop offset="0.84" stop-color="#8FE782"></stop><stop offset="0.9" stop-color="#B9EB6E"></stop><stop offset="0.97" stop-color="#E9EE58"></stop><stop offset="0.99" stop-color="#FEF04F"></stop><stop offset="1" stop-color="#FFF04F"></stop></linearGradient><linearGradient id="paint31_linear_4024_138" x1="528.151" y1="375.107" x2="955.326" y2="375.107" gradientUnits="userSpaceOnUse"><stop offset="0.03" stop-color="#06DEC3"></stop><stop offset="0.29" stop-color="#08DEC1"></stop><stop offset="0.42" stop-color="#10DEBE"></stop><stop offset="0.53" stop-color="#1DDFB7"></stop><stop offset="0.62" stop-color="#30E0AE"></stop><stop offset="0.7" stop-color="#49E2A3"></stop><stop offset="0.77" stop-color="#67E494"></stop><stop offset="0.84" stop-color="#8BE783"></stop><stop offset="0.9" stop-color="#B5EA70"></stop><stop offset="0.96" stop-color="#E3ED5A"></stop><stop offset="0.99" stop-color="#FEEF4E"></stop><stop offset="1" stop-color="#FFEF4E"></stop></linearGradient><linearGradient id="paint32_linear_4024_138" x1="532.015" y1="375.872" x2="936.281" y2="375.872" gradientUnits="userSpaceOnUse"><stop offset="0.03" stop-color="#06DEC3"></stop><stop offset="0.31" stop-color="#08DEC1"></stop><stop offset="0.44" stop-color="#0FDEBE"></stop><stop offset="0.54" stop-color="#1CDFB8"></stop><stop offset="0.63" stop-color="#2FE0AF"></stop><stop offset="0.71" stop-color="#47E2A3"></stop><stop offset="0.78" stop-color="#65E495"></stop><stop offset="0.84" stop-color="#88E685"></stop><stop offset="0.9" stop-color="#B1E971"></stop><stop offset="0.96" stop-color="#DEEB5C"></stop><stop offset="0.99" stop-color="#FFEE4D"></stop><stop offset="1" stop-color="#FFEE4D"></stop></linearGradient><linearGradient id="paint33_linear_4024_138" x1="535.897" y1="376.632" x2="917.254" y2="376.632" gradientUnits="userSpaceOnUse"><stop offset="0.03" stop-color="#06DEC3"></stop><stop offset="0.32" stop-color="#08DEC1"></stop><stop offset="0.46" stop-color="#0FDEBE"></stop><stop offset="0.56" stop-color="#1CDFB8"></stop><stop offset="0.64" stop-color="#2EE0AF"></stop><stop offset="0.72" stop-color="#45E1A4"></stop><stop offset="0.78" stop-color="#63E396"></stop><stop offset="0.84" stop-color="#85E585"></stop><stop offset="0.9" stop-color="#ADE872"></stop><stop offset="0.95" stop-color="#D9EA5D"></stop><stop offset="0.99" stop-color="#FFED4C"></stop></linearGradient></defs></svg> 