<?xml version="1.0" encoding="UTF-8"?> <svg xmlns="http://www.w3.org/2000/svg" width="32" height="32" viewBox="0 0 32 32" fill="none"><path d="M2 4V28L30.7595 32V0L2 4Z" fill="url(#paint0_linear_4087_143)"></path><path fill-rule="evenodd" clip-rule="evenodd" d="M21.3437 11.4989C21.3437 13.0091 20.7235 13.5726 20.1662 13.8359L17.7684 14.6308V7.42806L19.5462 7.42801C20.8074 7.36416 21.2759 8.43514 21.3437 9.44967V11.4989ZM18.7891 8.33228V13.3864C20.4646 12.8566 20.445 12.3822 20.445 10.6028C20.445 10.4409 20.4464 10.2898 20.4478 10.1489C20.4478 10.1489 20.4478 11.7234 20.4478 10.1471C20.4478 8.57094 20.2119 8.30848 18.7891 8.33228Z" fill="#F5F8FB"></path><path d="M6.66174 10.5524V18.3508L5.60109 18.7092V7.428H6.50089L8.77881 12.6546L8.97158 12.6152L11.2713 7.428H12.1829V16.4849L11.1102 16.8474V10.4659L11.0498 10.453L9.30491 13.9538L8.42033 14.1741L6.72261 10.5401L6.66174 10.5524Z" fill="#F5F8FB"></path><path d="M23.6954 15.1385L27.1617 13.9623V12.7799L22.6681 14.3269V24.5859L27.1617 24.5857V23.567L23.6954 23.5612V19.6566L26.563 19.073V17.9407L23.6954 18.5292V15.1385Z" fill="#F5F8FB"></path><path fill-rule="evenodd" clip-rule="evenodd" d="M16.8116 21.4667C16.7909 22.7177 16.6195 24.4729 15.0058 24.666C13.0816 24.8962 13.1875 23.04 13.1875 21.0856C13.1875 19.4187 12.9359 17.3098 14.9938 16.5896C17.023 15.8333 16.8173 18.6926 16.8173 19.7829C16.8173 20.3442 16.8122 20.9054 16.8116 21.4667ZM15.8773 21.9939L15.8796 20.1C15.8796 18.1568 15.7778 17.4281 15.3113 17.4324C14.28 17.4417 14.136 18.571 14.136 19.985C14.1373 20.3381 14.136 20.6768 14.136 20.9616C14.136 23.1424 14.1425 23.7763 14.8824 23.7763C15.7778 23.7763 15.8773 22.571 15.8773 21.9939Z" fill="#F5F8FB"></path><path d="M6.85742 24.6692C5.90908 24.7004 5.46185 24.0493 5.45703 23.2123L6.30902 23.0457C6.30902 23.3713 6.27143 23.9449 6.76716 23.8989C7.27697 23.9213 7.32289 23.407 7.32289 23.04C7.32289 22.78 7.30149 22.3282 6.89973 22.431C6.35535 22.5317 6.00655 22.5036 5.80207 22.3427C5.54393 22.1396 5.49347 21.7249 5.49347 21.0774C5.46308 20.3152 5.98925 19.5933 6.79424 19.4606C7.73131 19.2228 8.1604 19.9835 8.1604 20.7561L7.30805 20.9073C7.30805 20.6441 7.31597 20.0693 6.86587 20.2118C6.41974 20.3077 6.35022 20.6805 6.33757 21.0527C6.31981 21.6128 6.46631 21.7671 7.0255 21.6558C7.31282 21.5896 7.62601 21.6487 7.86524 21.8143C8.25496 22.1363 8.17528 22.74 8.17528 23.1858C8.17528 23.986 7.80589 24.6989 6.85742 24.6692Z" fill="#F5F8FB"></path><path d="M17.0631 14.8847V13.9622L14.478 14.7837V12.0887L16.6807 11.5994V10.6425L14.478 11.0583V8.34195H17.0631V7.42795H13.3812V16.1291L17.0631 14.8847Z" fill="#F5F8FB"></path><path fill-rule="evenodd" clip-rule="evenodd" d="M24.7391 12.4883L25.0704 10.918L26.0675 10.6698L26.3397 11.9474L27.0413 11.7103L26.0548 7.428H25.1032L23.8665 12.7832L24.7391 12.4883ZM25.5479 8.65474L25.6363 8.6478L25.9275 10.0138L25.2243 10.189L25.5479 8.65474Z" fill="#F5F8FB"></path><path d="M10.6708 23.8074C11.5346 23.6766 11.4694 22.6296 11.4696 21.9939L12.3784 21.8044C12.3754 23.0755 12.2483 24.4129 10.7113 24.645C9.19322 24.8743 8.9261 24.0558 8.9261 22.2513V20.6766C8.97532 19.6334 9.22201 18.602 10.6802 18.123C11.0559 17.9977 11.5036 17.9256 11.8505 18.1568C12.4567 18.5384 12.3789 19.3765 12.3789 19.985L11.4499 20.1874C11.4456 19.7986 11.4539 18.5832 10.7006 18.954C9.77306 19.266 9.832 20.5515 9.832 21.3042C9.83401 23.6741 10.1215 23.8903 10.6708 23.8074Z" fill="#F5F8FB"></path><path d="M23.2673 7.4281H22.4354V13.1987L23.2673 12.9177V7.4281Z" fill="#F5F8FB"></path><path fill-rule="evenodd" clip-rule="evenodd" d="M19.5364 15.2038C20.8478 14.7511 21.47 15.5047 21.4698 16.7084C21.4698 17.2613 21.4698 17.7324 21.4698 18.2853C21.4534 19.756 20.1767 20.2531 18.8953 20.4996V24.5916H17.9212L17.929 15.7808L19.5364 15.2038ZM20.565 17.9996C20.565 17.9105 20.5678 16.8927 20.5678 16.8927C20.5656 16.3744 20.1459 15.9301 19.6036 16.1824L18.8921 16.434L18.8913 19.3719C19.5804 19.2318 20.565 19.1424 20.565 17.9996Z" fill="#F5F8FB"></path><defs><linearGradient id="paint0_linear_4087_143" x1="2" y1="16" x2="30.7595" y2="16" gradientUnits="userSpaceOnUse"><stop stop-color="#12BCB1"></stop><stop offset="0.955" stop-color="#00AA95"></stop></linearGradient></defs></svg> 