<?xml version="1.0" encoding="UTF-8"?> <svg xmlns="http://www.w3.org/2000/svg" width="2837" height="2306" viewBox="0 0 2837 2306" fill="none"><path d="M2213.81 1696.5C2213.81 2043.56 1885.88 2304.61 1115.37 2304.61C402.187 2304.61 74.2361 1992.59 1 1664.67L319.387 1559.59C373.522 1795.21 599.571 1995.79 1109 1995.79C1618.43 1995.79 1866.75 1830.24 1866.75 1575.53C1866.75 1320.81 1650.24 1158.46 1134.47 1158.46H726.942V1126.62H1134.47C1631.14 1126.62 1831.75 967.443 1831.75 725.462C1831.75 483.481 1605.7 321.104 1109 321.104C612.306 321.104 418.092 518.514 370.351 735L51.9638 626.731C125.2 321.078 434.023 12.2546 1115.37 12.2546C1857.22 12.2546 2162.87 270.14 2162.87 610.826C2162.87 903.744 1943.19 1097.96 1392.36 1142.53C1975 1187.1 2213.78 1397.24 2213.78 1696.53L2213.81 1696.5Z" stroke="url(#paint0_linear_4026_156)"></path><path d="M2252.69 1696.32C2252.69 2043.48 1924.66 2304.61 1153.94 2304.61C440.522 2304.61 112.493 1992.52 39.2305 1664.46L357.722 1559.34C411.856 1795.03 637.984 1995.66 1147.57 1995.66C1657.16 1995.66 1905.56 1830.06 1905.56 1575.27C1905.56 1320.47 1688.99 1158.07 1173.04 1158.07H765.38V1126.21H1173.04C1669.86 1126.21 1870.52 966.976 1870.52 724.918C1870.52 482.859 1644.4 320.456 1147.57 320.456C650.744 320.456 456.453 517.918 408.686 734.481L90.1943 626.187C163.456 320.456 472.384 11.5283 1153.94 11.5283C1895.99 11.5283 2201.75 269.492 2201.75 610.281C2201.75 903.278 1981.99 1097.54 1431 1142.14C2013.82 1186.74 2252.69 1396.93 2252.69 1696.3V1696.32Z" stroke="url(#paint1_linear_4026_156)"></path><path d="M2291.59 1696.12C2291.59 2043.38 1963.46 2304.59 1192.51 2304.59C478.882 2304.59 150.749 1992.39 77.4609 1664.25L396.056 1559.1C450.217 1794.87 676.396 1995.56 1186.14 1995.56C1695.88 1995.56 1944.36 1829.91 1944.36 1575.03C1944.36 1320.16 1727.72 1157.71 1211.61 1157.71H803.818V1125.85H1211.61C1708.59 1125.85 1909.3 966.562 1909.3 724.425C1909.3 482.289 1683.09 319.833 1186.11 319.833C689.13 319.833 494.787 517.347 446.994 733.989L128.399 625.668C201.687 319.833 510.692 10.8019 1192.45 10.8019C1934.74 10.8019 2240.58 268.844 2240.58 609.737C2240.58 902.837 2020.76 1097.15 1469.6 1141.75C2052.6 1186.35 2291.54 1396.62 2291.54 1696.09L2291.59 1696.12Z" stroke="url(#paint2_linear_4026_156)"></path><path d="M2330.48 1695.93C2330.48 2043.29 2002.24 2304.61 1231.05 2304.61C517.193 2304.61 188.956 1992.3 115.668 1664.07L434.341 1558.89C488.502 1794.71 714.785 1995.47 1224.66 1995.47C1734.53 1995.47 1983.11 1829.77 1983.11 1574.82C1983.11 1319.87 1766.42 1157.36 1250.15 1157.36H842.233V1125.5H1250.15C1747.29 1125.5 1948.05 966.166 1948.05 723.977C1948.05 481.789 1721.79 319.256 1224.66 319.256C727.52 319.256 533.124 516.848 485.331 733.541L166.658 625.194C239.972 319.282 549.081 10.1462 1231.05 10.1462C1973.57 10.1462 2279.51 268.266 2279.51 609.263C2279.51 902.442 2059.62 1096.84 1508.3 1141.46C2091.48 1186.08 2330.48 1396.41 2330.48 1695.95V1695.93Z" stroke="url(#paint3_linear_4026_156)"></path><path d="M2369.35 1695.75C2369.35 2043.22 2041.01 2304.61 1269.59 2304.61C555.526 2304.61 227.185 1992.23 153.871 1663.89L472.648 1558.68C526.835 1794.58 753.17 1995.4 1263.22 1995.4C1773.28 1995.4 2021.91 1829.64 2021.91 1574.61C2021.91 1319.59 1805.14 1157.03 1288.72 1157.03H880.697V1125.14H1288.72C1786.01 1125.14 1986.85 965.751 1986.85 723.485C1986.85 481.218 1760.52 318.633 1263.22 318.633C765.93 318.633 571.483 516.277 523.664 733.049L204.887 624.65C278.201 318.633 587.414 9.41992 1269.59 9.41992C2012.32 9.41992 2318.36 267.617 2318.36 608.719C2318.36 902.001 2098.4 1096.45 1546.92 1141.07C2130.28 1185.69 2369.35 1396.1 2369.35 1695.75Z" stroke="url(#paint4_linear_4026_156)"></path><path d="M2408.25 1695.57C2408.25 2043.14 2079.8 2304.61 1308.15 2304.61C593.875 2304.61 265.43 1992.12 192.09 1663.68L510.971 1558.45C565.183 1794.43 791.571 1995.32 1301.78 1995.32C1811.99 1995.32 2060.7 1829.51 2060.7 1574.41C2060.7 1319.3 1843.88 1156.69 1327.3 1156.69H919.149V1124.8H1327.3C1824.75 1124.8 2025.64 965.362 2025.64 723.018C2025.64 480.673 1799.23 318.062 1301.81 318.062C804.383 318.062 609.858 515.758 562.013 732.608L243.132 624.183C316.472 318.062 625.789 8.77075 1308.17 8.77075C2051.14 8.77075 2357.26 267.046 2357.26 608.252C2357.26 901.612 2137.24 1096.11 1585.58 1140.76C2169.13 1185.41 2408.27 1395.86 2408.27 1695.59L2408.25 1695.57Z" stroke="url(#paint5_linear_4026_156)"></path><path d="M2447.13 1695.38C2447.13 2043.06 2118.58 2304.61 1346.69 2304.61C632.182 2304.61 303.659 1992.01 230.293 1663.49L549.278 1558.21C603.49 1794.27 829.982 1995.21 1340.32 1995.21C1850.66 1995.21 2099.48 1829.35 2099.48 1574.17C2099.48 1318.99 1882.58 1156.32 1365.84 1156.32H957.56V1124.41H1365.84C1863.42 1124.41 2064.39 964.916 2064.39 722.494C2064.39 480.071 1837.93 317.408 1340.32 317.408C842.716 317.408 648.139 515.182 600.32 732.057L281.335 623.607C354.701 317.408 664.096 7.98682 1346.71 7.98682C2089.91 7.98682 2396.14 266.34 2396.14 607.65C2396.14 901.088 2176.04 1095.67 1624.22 1140.34C2207.93 1184.99 2447.15 1395.52 2447.15 1695.35L2447.13 1695.38Z" stroke="url(#paint6_linear_4026_156)"></path><path d="M2486.01 1695.2C2486.01 2042.98 2157.38 2304.61 1385.23 2304.61C670.519 2304.61 341.866 1991.94 268.5 1663.28L587.563 1557.98C641.801 1794.09 868.345 1995.11 1378.87 1995.11C1889.39 1995.11 2138.26 1829.2 2138.26 1573.94C2138.26 1318.67 1921.3 1155.96 1404.39 1155.96H995.975V1124.05H1404.39C1902.12 1124.05 2103.14 964.527 2103.14 722.026C2103.14 479.526 1876.6 316.811 1378.87 316.811C881.131 316.811 686.476 514.637 638.631 731.59L319.568 623.114C392.96 316.811 702.459 7.31177 1385.26 7.31177C2128.69 7.31177 2434.99 265.743 2434.99 607.156C2434.99 900.699 2214.84 1095.33 1662.84 1140C2246.73 1184.68 2486.04 1395.26 2486.04 1695.17L2486.01 1695.2Z" stroke="url(#paint7_linear_4026_156)"></path><path d="M2524.91 1694.99C2524.91 2042.88 2196.18 2304.58 1423.8 2304.58C708.852 2304.58 380.121 1991.81 306.703 1663.08L625.87 1557.75C680.134 1793.93 906.73 1995.01 1417.41 1995.01C1928.08 1995.01 2177.03 1829.04 2177.03 1573.7C2177.03 1318.36 1960 1155.6 1442.95 1155.6H1034.41V1123.68H1442.95C1940.85 1123.68 2141.92 964.112 2141.92 721.534C2141.92 478.956 1915.3 316.189 1417.41 316.189C919.516 316.189 724.809 514.066 676.938 731.098L357.771 622.569C431.189 316.189 740.766 6.58545 1423.8 6.58545C2167.44 6.58545 2473.85 265.095 2473.85 606.612C2473.85 900.232 2253.62 1094.94 1701.46 1139.61C2285.53 1184.29 2524.91 1394.95 2524.91 1694.97V1694.99Z" stroke="url(#paint8_linear_4026_156)"></path><path d="M2563.8 1694.81C2563.8 2042.82 2234.96 2304.61 1462.35 2304.61C747.189 2304.61 418.354 1991.73 344.91 1662.9L664.181 1557.54C718.445 1793.8 945.119 1994.93 1455.95 1994.93C1966.79 1994.93 2215.81 1828.91 2215.81 1573.5C2215.81 1318.08 1998.7 1155.26 1481.5 1155.26H1072.85V1123.32H1481.5C1979.55 1123.32 2180.7 963.697 2180.7 721.041C2180.7 478.384 1954.03 315.591 1455.98 315.591C957.931 315.591 763.172 513.547 715.275 730.631L396.004 622.076C469.448 315.591 779.129 5.9104 1462.35 5.9104C2206.22 5.9104 2512.73 264.498 2512.73 606.119C2512.73 899.843 2292.42 1094.58 1740.11 1139.28C2324.36 1183.98 2563.8 1394.69 2563.8 1694.78V1694.81Z" stroke="url(#paint9_linear_4026_156)"></path><path d="M2602.68 1694.63C2602.68 2042.75 2273.74 2304.61 1500.89 2304.61C785.522 2304.61 456.583 1991.65 383.113 1662.72L702.488 1557.31C756.779 1793.65 983.53 1994.82 1494.52 1994.82C2005.51 1994.82 2254.58 1828.76 2254.58 1573.26C2254.58 1317.77 2037.42 1154.9 1520.04 1154.9H1111.26V1122.96H1520.04C2018.24 1122.96 2219.45 963.282 2219.45 720.574C2219.45 477.866 1992.7 314.995 1494.49 314.995C996.29 314.995 801.479 513.003 753.582 730.164L434.207 621.583C507.677 314.995 817.436 5.23584 1500.89 5.23584C2244.99 5.23584 2551.58 263.901 2551.58 605.626C2551.58 899.428 2331.22 1094.24 1778.73 1138.97C2363.16 1183.69 2602.68 1394.46 2602.68 1694.66V1694.63Z" stroke="url(#paint10_linear_4026_156)"></path><path d="M2641.58 1694.45C2641.58 2042.67 2312.54 2304.61 1539.45 2304.61C823.857 2304.61 494.814 1991.55 421.344 1662.51L740.797 1557.07C795.113 1793.47 1021.92 1994.72 1533.06 1994.72C2044.21 1994.72 2293.36 1828.6 2293.36 1573.03C2293.36 1317.46 2076.12 1154.56 1558.61 1154.56H1149.7V1122.62H1558.61C2056.97 1122.62 2258.22 962.894 2258.22 720.108C2258.22 477.322 2031.39 314.399 1533.06 314.399C1034.73 314.399 839.84 512.458 791.916 729.698L472.464 621.065C545.934 314.399 855.823 4.50952 1539.45 4.50952C2283.8 4.50952 2590.46 263.279 2590.46 605.082C2590.46 898.988 2370.03 1093.85 1817.38 1138.58C2401.99 1183.3 2641.58 1394.15 2641.58 1694.42V1694.45Z" stroke="url(#paint11_linear_4026_156)"></path><path d="M2680.47 1694.26C2680.47 2042.59 2351.32 2304.61 1578 2304.61C862.193 2304.61 533.047 1991.44 459.551 1662.32L779.108 1556.86C833.424 1793.33 1060.31 1994.64 1571.61 1994.64C2082.91 1994.64 2332.14 1828.47 2332.14 1572.82C2332.14 1317.17 2114.85 1154.22 1597.15 1154.22H1188.12V1122.25H1597.15C2095.67 1122.25 2296.98 962.473 2296.98 719.609C2296.98 476.744 2070.1 313.769 1571.58 313.769C1073.07 313.769 878.15 511.907 830.201 729.198L510.644 620.54C584.14 313.769 894.108 3.80249 1577.97 3.80249C2322.52 3.80249 2629.32 262.65 2629.32 604.557C2629.32 898.541 2408.83 1093.46 1856 1138.21C2440.8 1182.96 2680.44 1393.86 2680.44 1694.24L2680.47 1694.26Z" stroke="url(#paint12_linear_4026_156)"></path><path d="M2719.33 1694.09C2719.33 2042.52 2390.08 2304.61 1616.53 2304.61C900.489 2304.61 571.264 1991.37 497.742 1662.12L817.403 1556.63C871.745 1793.18 1098.7 1994.57 1610.14 1994.57C2121.57 1994.57 2370.9 1828.34 2370.9 1572.64C2370.9 1316.94 2153.53 1153.91 1635.71 1153.91H1226.54V1121.95H1635.71C2134.35 1121.95 2335.74 962.116 2335.74 719.174C2335.74 476.231 2108.78 313.23 1610.14 313.23C1111.49 313.23 916.498 511.42 868.549 728.789L548.888 620.105C622.41 313.256 932.481 3.18542 1616.53 3.18542C2361.31 3.18542 2668.19 262.111 2668.19 604.148C2668.19 898.236 2447.62 1093.2 1894.61 1137.96C2479.56 1182.71 2719.31 1393.68 2719.31 1694.14L2719.33 1694.09Z" stroke="url(#paint13_linear_4026_156)"></path><path d="M2758.21 1693.87C2758.21 2042.41 2428.88 2304.58 1655.07 2304.58C938.822 2304.58 609.493 1991.24 535.945 1661.91L855.71 1556.37C910.052 1792.99 1137.09 1994.43 1648.7 1994.43C2160.32 1994.43 2409.7 1828.16 2409.7 1572.38C2409.7 1316.6 2192.28 1153.52 1674.28 1153.52H1265.01V1121.53H1674.28C2173.08 1121.53 2374.54 961.643 2374.54 718.649C2374.54 475.655 2147.5 312.576 1648.7 312.576C1149.9 312.576 954.831 510.817 906.882 728.239L587.117 619.528C660.665 312.576 970.814 2.427 1655.1 2.427C2400.11 2.427 2707.07 261.43 2707.07 603.571C2707.07 897.737 2486.45 1092.78 1933.25 1137.56C2518.39 1182.34 2758.21 1393.37 2758.21 1693.93V1693.87Z" stroke="url(#paint14_linear_4026_156)"></path><path d="M2797.12 1693.69C2797.12 2042.33 2467.69 2304.61 1693.67 2304.61C977.21 2304.61 647.751 1991.16 574.203 1661.73L894.046 1556.16C948.414 1792.87 1175.5 1994.36 1687.27 1994.36C2199.04 1994.36 2448.51 1828.03 2448.51 1572.17C2448.51 1316.31 2231.01 1153.18 1712.85 1153.18H1303.45V1121.19H1712.85C2211.8 1121.19 2413.32 961.28 2413.32 718.182C2413.32 475.084 2186.23 311.979 1687.27 311.979C1188.32 311.979 993.193 510.273 945.218 727.772L625.375 619.009C698.949 311.953 1009.2 1.70044 1693.67 1.70044C2438.92 1.70044 2745.97 260.782 2745.97 603.026C2745.97 897.27 2525.28 1092.39 1971.93 1137.17C2557.24 1181.95 2797.12 1393.06 2797.12 1693.69Z" stroke="url(#paint15_linear_4026_156)"></path><path d="M2836 1693.51C2836 2042.25 2506.46 2304.61 1732.21 2304.61C1015.52 2304.61 685.983 1991.08 612.383 1661.52L932.329 1555.93C986.724 1792.69 1213.89 1994.25 1725.79 1994.25C2237.69 1994.25 2487.26 1827.9 2487.26 1571.94C2487.26 1315.98 2269.71 1152.82 1751.39 1152.82H1341.86V1120.83H1751.39C2250.5 1120.83 2452.07 960.866 2452.07 717.69C2452.07 474.514 2224.9 311.357 1725.79 311.357C1226.68 311.357 1031.5 509.728 983.527 727.28L663.581 618.491C737.18 311.357 1047.51 1 1732.21 1C2477.67 1 2784.83 260.159 2784.83 602.508C2784.83 896.856 2564.05 1092 2010.55 1136.81C2596.05 1181.61 2836 1392.77 2836 1693.51Z" stroke="url(#paint16_linear_4026_156)"></path><defs><linearGradient id="paint0_linear_4026_156" x1="-2.01469" y1="1158.41" x2="2216.41" y2="1158.41" gradientUnits="userSpaceOnUse"><stop offset="0.02" stop-color="#FFFF5A"></stop><stop offset="0.18" stop-color="#12BCB1"></stop></linearGradient><linearGradient id="paint1_linear_4026_156" x1="36.0858" y1="1158.07" x2="2255.39" y2="1158.07" gradientUnits="userSpaceOnUse"><stop stop-color="#FFFE59"></stop><stop offset="0.02" stop-color="#FFFE59"></stop><stop offset="0.18" stop-color="#1EBFAC"></stop><stop offset="0.97" stop-color="#11BEB2"></stop></linearGradient><linearGradient id="paint2_linear_4026_156" x1="74.2124" y1="1157.71" x2="2294.35" y2="1157.71" gradientUnits="userSpaceOnUse"><stop stop-color="#FFFD58"></stop><stop offset="0.02" stop-color="#FFFD58"></stop><stop offset="0.18" stop-color="#2AC2A7"></stop><stop offset="0.97" stop-color="#11C0B3"></stop></linearGradient><linearGradient id="paint3_linear_4026_156" x1="112.315" y1="1157.36" x2="2333.31" y2="1157.36" gradientUnits="userSpaceOnUse"><stop stop-color="#FFFC57"></stop><stop offset="0.02" stop-color="#FFFC58"></stop><stop offset="0.18" stop-color="#36C5A2"></stop><stop offset="0.97" stop-color="#10C2B4"></stop></linearGradient><linearGradient id="paint4_linear_4026_156" x1="150.441" y1="1157.03" x2="2372.29" y2="1157.03" gradientUnits="userSpaceOnUse"><stop stop-color="#FFFB57"></stop><stop offset="0.02" stop-color="#FFFB57"></stop><stop offset="0.18" stop-color="#42C89D"></stop><stop offset="0.97" stop-color="#0FC5B5"></stop></linearGradient><linearGradient id="paint5_linear_4026_156" x1="188.555" y1="1156.66" x2="2411.24" y2="1156.66" gradientUnits="userSpaceOnUse"><stop stop-color="#FFF956"></stop><stop offset="0.02" stop-color="#FEF956"></stop><stop offset="0.18" stop-color="#4ECA98"></stop><stop offset="0.97" stop-color="#0EC7B7"></stop></linearGradient><linearGradient id="paint6_linear_4026_156" x1="226.655" y1="1156.32" x2="2450.22" y2="1156.32" gradientUnits="userSpaceOnUse"><stop stop-color="#FFF855"></stop><stop offset="0.02" stop-color="#FEF855"></stop><stop offset="0.18" stop-color="#5ACD93"></stop><stop offset="0.97" stop-color="#0DC9B8"></stop></linearGradient><linearGradient id="paint7_linear_4026_156" x1="264.784" y1="1155.96" x2="2489.18" y2="1155.96" gradientUnits="userSpaceOnUse"><stop stop-color="#FFF754"></stop><stop offset="0.02" stop-color="#FEF754"></stop><stop offset="0.18" stop-color="#66D08E"></stop><stop offset="0.97" stop-color="#0DCBB9"></stop></linearGradient><linearGradient id="paint8_linear_4026_156" x1="302.883" y1="1155.62" x2="2528.16" y2="1155.62" gradientUnits="userSpaceOnUse"><stop stop-color="#FFF653"></stop><stop offset="0.02" stop-color="#FEF654"></stop><stop offset="0.18" stop-color="#72D389"></stop><stop offset="0.97" stop-color="#0CCDBA"></stop></linearGradient><linearGradient id="paint9_linear_4026_156" x1="341.012" y1="1155.26" x2="2567.12" y2="1155.26" gradientUnits="userSpaceOnUse"><stop stop-color="#FFF552"></stop><stop offset="0.02" stop-color="#FEF553"></stop><stop offset="0.18" stop-color="#7FD684"></stop><stop offset="0.97" stop-color="#0BCFBB"></stop></linearGradient><linearGradient id="paint10_linear_4026_156" x1="379.137" y1="1154.92" x2="2606.08" y2="1154.92" gradientUnits="userSpaceOnUse"><stop stop-color="#FFF451"></stop><stop offset="0.02" stop-color="#FEF452"></stop><stop offset="0.18" stop-color="#8BD97F"></stop><stop offset="0.97" stop-color="#0BD1BC"></stop></linearGradient><linearGradient id="paint11_linear_4026_156" x1="417.238" y1="1154.56" x2="2645.07" y2="1154.56" gradientUnits="userSpaceOnUse"><stop stop-color="#FFF350"></stop><stop offset="0.02" stop-color="#FEF351"></stop><stop offset="0.18" stop-color="#97DC7A"></stop><stop offset="0.97" stop-color="#0AD3BD"></stop></linearGradient><linearGradient id="paint12_linear_4026_156" x1="455.367" y1="1154.22" x2="2684.03" y2="1154.22" gradientUnits="userSpaceOnUse"><stop stop-color="#FFF250"></stop><stop offset="0.02" stop-color="#FEF250"></stop><stop offset="0.18" stop-color="#A3DF75"></stop><stop offset="0.97" stop-color="#09D6BF"></stop></linearGradient><linearGradient id="paint13_linear_4026_156" x1="493.454" y1="1153.86" x2="2723" y2="1153.86" gradientUnits="userSpaceOnUse"><stop stop-color="#FFF04F"></stop><stop offset="0.02" stop-color="#FDF04F"></stop><stop offset="0.18" stop-color="#AFE170"></stop><stop offset="0.97" stop-color="#08D8C0"></stop></linearGradient><linearGradient id="paint14_linear_4026_156" x1="531.579" y1="1153.52" x2="2761.95" y2="1153.52" gradientUnits="userSpaceOnUse"><stop stop-color="#FFEF4E"></stop><stop offset="0.02" stop-color="#FDEF4F"></stop><stop offset="0.18" stop-color="#BBE46B"></stop><stop offset="0.97" stop-color="#08DAC1"></stop></linearGradient><linearGradient id="paint15_linear_4026_156" x1="569.707" y1="1153.15" x2="2800.94" y2="1153.15" gradientUnits="userSpaceOnUse"><stop stop-color="#FFEE4D"></stop><stop offset="0.02" stop-color="#FDEE4E"></stop><stop offset="0.18" stop-color="#C7E766"></stop><stop offset="0.97" stop-color="#07DCC2"></stop></linearGradient><linearGradient id="paint16_linear_4026_156" x1="607.809" y1="1152.82" x2="2839.9" y2="1152.82" gradientUnits="userSpaceOnUse"><stop stop-color="#FFED4C"></stop><stop offset="0.97" stop-color="#06DEC3"></stop></linearGradient></defs></svg> 