<?xml version="1.0" encoding="UTF-8"?> <svg xmlns="http://www.w3.org/2000/svg" width="56" height="63" viewBox="0 0 56 63" fill="none"><path d="M0 7.76712V54.3699L56 62.137V0L0 7.76712Z" fill="url(#paint0_linear_2196_373)"></path><path fill-rule="evenodd" clip-rule="evenodd" d="M37.6724 22.329C37.6724 25.2616 36.4648 26.3557 35.3797 26.867L30.7108 28.4104V14.4243L34.1724 14.4242C36.6282 14.3002 37.5405 16.3798 37.6724 18.3498V22.329ZM32.6982 16.1801V25.9941C35.9608 24.9654 35.9226 24.0441 35.9226 20.589C35.9226 20.2746 35.9253 19.9812 35.928 19.7077C35.928 19.7077 35.9281 22.7648 35.9281 19.7042C35.9281 16.6435 35.4686 16.1339 32.6982 16.1801Z" fill="#F5F8FB"></path><path d="M9.08407 20.4911V35.6339L7.01879 36.3299V14.4242H8.77086L13.2064 24.573L13.5818 24.4967L18.0597 14.4242H19.8348V32.0108L17.7461 32.7146V20.3232L17.6284 20.2981L14.2308 27.0959L12.5084 27.5237L9.2026 20.4672L9.08407 20.4911Z" fill="#F5F8FB"></path><path d="M42.2517 29.3962L49.0013 27.1123V24.8165L40.2515 27.8203V47.741L49.0013 47.7406V45.7627L42.2517 45.7513V38.1696L47.8355 37.0363V34.8376L42.2517 35.9802V29.3962Z" fill="#F5F8FB"></path><path fill-rule="evenodd" clip-rule="evenodd" d="M28.8477 41.6843C28.8074 44.1134 28.4737 47.5217 25.3314 47.8966C21.5848 48.3436 21.791 44.7393 21.791 40.9443C21.791 37.7075 21.301 33.6126 25.3081 32.214C29.2593 30.7455 28.8588 36.2976 28.8588 38.4147C28.8588 39.5046 28.8488 40.5944 28.8477 41.6843ZM27.0285 42.708L27.033 39.0304C27.033 35.2571 26.8348 33.8423 25.9264 33.8505C23.9182 33.8686 23.6379 36.0614 23.6379 38.8072C23.6404 39.4928 23.6379 40.1504 23.6379 40.7035C23.6379 44.9382 23.6504 46.1691 25.0913 46.1691C26.8348 46.1691 27.0285 43.8286 27.0285 42.708Z" fill="#F5F8FB"></path><path d="M9.46509 47.9028C7.6185 47.9634 6.74766 46.6992 6.73828 45.0739L8.39725 44.7504C8.39725 45.3826 8.32407 46.4965 9.28934 46.4071C10.282 46.4506 10.3715 45.452 10.3715 44.7393C10.3715 44.2344 10.3298 43.3572 9.54748 43.5568C8.48747 43.7522 7.8083 43.6976 7.41014 43.3852C6.90749 42.9909 6.80923 42.1856 6.80923 40.9283C6.75006 39.4483 7.7746 38.0466 9.34207 37.789C11.1667 37.3271 12.0022 38.8043 12.0022 40.3045L10.3426 40.5981C10.3426 40.087 10.358 38.9708 9.48155 39.2476C8.61286 39.4337 8.47748 40.1576 8.45286 40.8804C8.41828 41.9679 8.70353 42.2676 9.79237 42.0514C10.3518 41.923 10.9617 42.0378 11.4275 42.3592C12.1864 42.9846 12.0312 44.1568 12.0312 45.0225C12.0312 46.5761 11.3119 47.9606 9.46509 47.9028Z" fill="#F5F8FB"></path><path d="M29.3373 28.9034V27.1122L24.3038 28.7073V23.4742L28.5928 22.5241V20.666L24.3038 21.4735V16.1989H29.3373V14.4241H22.1681V31.3198L29.3373 28.9034Z" fill="#F5F8FB"></path><path fill-rule="evenodd" clip-rule="evenodd" d="M44.284 24.2503L44.929 21.201L46.8706 20.719L47.4007 23.1999L48.7668 22.7396L46.8458 14.4242H44.9929L42.5848 24.8228L44.284 24.2503ZM45.8589 16.8063L46.031 16.7928L46.5981 19.4453L45.2289 19.7854L45.8589 16.8063Z" fill="#F5F8FB"></path><path d="M16.8904 46.2294C18.5725 45.9755 18.4455 43.9424 18.4458 42.708L20.2155 42.34C20.2096 44.8082 19.9622 47.4051 16.9693 47.8558C14.0133 48.3011 13.4932 46.7118 13.4932 43.2078V40.1501C13.589 38.1244 14.0694 36.1216 16.9088 35.1916C17.6403 34.9483 18.512 34.8083 19.1876 35.2571C20.3679 35.9981 20.2165 37.6255 20.2165 38.8072L18.4075 39.2002C18.3992 38.4453 18.4152 36.0852 16.9484 36.8052C15.1424 37.4111 15.2571 39.9072 15.2571 41.3688C15.2611 45.9705 15.8209 46.3904 16.8904 46.2294Z" fill="#F5F8FB"></path><path d="M41.4181 14.4244H39.7982V25.6297L41.4181 25.0841V14.4244Z" fill="#F5F8FB"></path><path fill-rule="evenodd" clip-rule="evenodd" d="M34.1534 29.5232C36.7069 28.644 37.9185 30.1074 37.9181 32.4448C37.9181 33.5184 37.9181 34.4331 37.9181 35.5066C37.8862 38.3625 35.4002 39.3276 32.905 39.8063V47.7522H31.0083L31.0234 30.6435L34.1534 29.5232ZM36.1562 34.9519C36.1562 34.7788 36.1618 32.8026 36.1618 32.8026C36.1575 31.7961 35.3402 30.9333 34.2843 31.4233L32.8987 31.9118L32.8972 37.6166C34.239 37.3446 36.1562 37.171 36.1562 34.9519Z" fill="#F5F8FB"></path><defs><linearGradient id="paint0_linear_2196_373" x1="0" y1="31.0685" x2="56" y2="31.0685" gradientUnits="userSpaceOnUse"><stop stop-color="#12BCB1"></stop><stop offset="0.955" stop-color="#00AA95"></stop></linearGradient></defs></svg> 