<?xml version="1.0" encoding="UTF-8"?> <svg xmlns="http://www.w3.org/2000/svg" width="38" height="35" viewBox="0 0 38 35" fill="none"><g filter="url(#filter0_bd_2207_1851)"><path d="M33.4335 0.371171C32.9218 -0.0581302 32.118 -0.119555 31.2869 0.210521H31.2856C30.4115 0.557472 6.54421 10.6852 5.5726 11.099C5.39588 11.1597 3.85249 11.7294 4.01147 12.9984C4.15339 14.1426 5.39384 14.6164 5.54531 14.6711L11.6131 16.7265C12.0157 18.0522 13.4997 22.9432 13.8279 23.9881C14.0326 24.6395 14.3663 25.4954 14.951 25.6716C15.4641 25.8673 15.9745 25.6885 16.3047 25.432L20.0144 22.0279L26.0031 26.6483L26.1457 26.7327C26.5524 26.9109 26.942 27 27.3138 27C27.6011 27 27.8767 26.9467 28.1401 26.84C29.0373 26.4755 29.3962 25.6297 29.4338 25.5339L33.907 2.53185C34.1799 1.30335 33.8006 0.678297 33.4335 0.371171ZM16.9645 17.5486L14.9176 22.9486L12.8706 16.1986L28.5638 4.72358L16.9645 17.5486Z" fill="white"></path></g><defs><filter id="filter0_bd_2207_1851" x="-22.6" y="-26.6" width="83.2" height="80.2" filterUnits="userSpaceOnUse" color-interpolation-filters="sRGB"><feFlood flood-opacity="0" result="BackgroundImageFix"></feFlood><feGaussianBlur in="BackgroundImageFix" stdDeviation="13.3"></feGaussianBlur><feComposite in2="SourceAlpha" operator="in" result="effect1_backgroundBlur_2207_1851"></feComposite><feColorMatrix in="SourceAlpha" type="matrix" values="0 0 0 0 0 0 0 0 0 0 0 0 0 0 0 0 0 0 127 0" result="hardAlpha"></feColorMatrix><feOffset dy="4"></feOffset><feGaussianBlur stdDeviation="2"></feGaussianBlur><feComposite in2="hardAlpha" operator="out"></feComposite><feColorMatrix type="matrix" values="0 0 0 0 0 0 0 0 0 0 0 0 0 0 0 0 0 0 0.25 0"></feColorMatrix><feBlend mode="normal" in2="effect1_backgroundBlur_2207_1851" result="effect2_dropShadow_2207_1851"></feBlend><feBlend mode="normal" in="SourceGraphic" in2="effect2_dropShadow_2207_1851" result="shape"></feBlend></filter></defs></svg> 